<?xml version="1.0" encoding="iso-8859-1"?>
<!-- Uploaded to: SVG Repo, www.svgrepo.com, Generator: SVG Repo Mixer Tools -->
<svg fill="#000000" height="800px" width="800px" version="1.1" id="Layer_1" xmlns="http://www.w3.org/2000/svg" xmlns:xlink="http://www.w3.org/1999/xlink" 
	 viewBox="0 0 512.001 512.001" xml:space="preserve">
<g>
	<g>
		<path d="M365.671,280.773H146.332c-5.221,0-9.454,4.233-9.454,9.454v174.501c0,5.221,4.233,9.454,9.454,9.454h219.339
			c5.223,0,9.454-4.233,9.454-9.454V290.228C375.125,285.006,370.892,280.773,365.671,280.773z M356.217,455.274H155.786V299.682
			h200.431V455.274z"/>
	</g>
</g>
<g>
	<g>
		<path d="M326.905,331.155H185.097c-5.221,0-9.454,4.233-9.454,9.454c0,5.221,4.233,9.454,9.454,9.454h141.808
			c5.223,0,9.454-4.233,9.454-9.454C336.359,335.388,332.127,331.155,326.905,331.155z"/>
	</g>
</g>
<g>
	<g>
		<path d="M326.905,368.024H185.097c-5.221,0-9.454,4.233-9.454,9.454c0,5.221,4.233,9.454,9.454,9.454h141.808
			c5.223,0,9.454-4.233,9.454-9.454C336.359,372.257,332.127,368.024,326.905,368.024z"/>
	</g>
</g>
<g>
	<g>
		<path d="M326.905,404.894H185.097c-5.221,0-9.454,4.233-9.454,9.454c0,5.221,4.233,9.454,9.454,9.454h141.808
			c5.223,0,9.454-4.233,9.454-9.454C336.359,409.127,332.127,404.894,326.905,404.894z"/>
	</g>
</g>
<g>
	<g>
		<path d="M443.393,192.218v-60.505c0-5.221-4.232-9.454-9.454-9.454h-21.13c-1.191-13.653-10.75-24.939-23.508-28.692V9.454
			c0-5.221-4.232-9.454-9.454-9.454h-247.69c-5.221,0-9.454,4.233-9.454,9.454v84.114c-12.758,3.753-22.317,15.039-23.508,28.692
			H78.063c-5.221,0-9.454,4.233-9.454,9.454v60.505c0,5.221,4.233,9.454,9.454,9.454h20.996v7.987H78.063
			c-5.221,0-9.454,4.233-9.454,9.454v60.505c0,5.221,4.233,9.454,9.454,9.454h20.996v190.015c0,18.148,14.764,32.912,32.912,32.912
			h248.056c18.147,0,32.912-14.765,32.912-32.912V289.072h20.996c5.223,0,9.454-4.233,9.454-9.454v-60.505
			c0-5.221-4.232-9.454-9.454-9.454H412.94v-7.987h20.999v0.001C439.161,201.673,443.393,197.439,443.393,192.218z M99.059,270.163
			H87.517v-41.596h11.542V270.163z M99.059,182.764H87.517v-41.596h11.542V182.764z M141.609,18.909h228.781V92.23H141.609V18.909z
			 M394.034,479.088c0,7.722-6.281,14.004-14.004,14.004H131.972c-7.721,0-14.004-6.283-14.004-14.004V125.142
			c0-7.722,6.283-14.004,14.004-14.004h0.184h247.69h0.184c7.722,0,14.004,6.283,14.004,14.004V479.088z M412.942,228.568h11.542
			v41.596h-11.542V228.568z M424.484,182.764h-11.542v-41.596h11.542V182.764z"/>
	</g>
</g>
<g>
	<g>
		<path d="M165.24,136.981c-19.579,0-35.507,15.927-35.507,35.507c0,19.579,15.927,35.506,35.507,35.506
			c19.578,0,35.507-15.927,35.507-35.506C200.747,152.91,184.819,136.981,165.24,136.981z M165.24,189.087
			c-9.153,0-16.598-7.445-16.598-16.598c0-9.153,7.445-16.598,16.598-16.598c9.152,0,16.598,7.445,16.598,16.598
			C181.838,181.641,174.393,189.087,165.24,189.087z"/>
	</g>
</g>
<g>
	<g>
		<path d="M256.001,136.981c-19.578,0-35.506,15.927-35.506,35.507c0,19.579,15.927,35.506,35.506,35.506
			c19.578,0,35.507-15.927,35.507-35.506C291.508,152.91,275.579,136.981,256.001,136.981z M256.001,189.087
			c-9.152,0-16.598-7.445-16.598-16.598c0-9.153,7.445-16.598,16.598-16.598c9.153,0,16.598,7.445,16.598,16.598
			C272.599,181.641,265.154,189.087,256.001,189.087z"/>
	</g>
</g>
<g>
	<g>
		<path d="M346.762,136.983c-19.578,0-35.507,15.927-35.507,35.506c0,19.578,15.929,35.507,35.507,35.507
			s35.507-15.927,35.507-35.506C382.269,152.91,366.34,136.983,346.762,136.983z M346.762,189.086
			c-9.153,0-16.598-7.445-16.598-16.598c0-9.152,7.445-16.598,16.598-16.598s16.598,7.445,16.598,16.598
			C363.36,181.641,355.914,189.086,346.762,189.086z"/>
	</g>
</g>
<g>
	<g>
		<path d="M210.2,32.249h-42.019c-5.221,0-9.454,4.233-9.454,9.454c0,5.221,4.233,9.454,9.454,9.454H210.2
			c5.221,0,9.454-4.233,9.454-9.454C219.654,36.482,215.421,32.249,210.2,32.249z"/>
	</g>
</g>
<g>
	<g>
		<path d="M210.2,59.982h-42.019c-5.221,0-9.454,4.233-9.454,9.454c0,5.221,4.233,9.454,9.454,9.454H210.2
			c5.221,0,9.454-4.233,9.454-9.454C219.654,64.215,215.421,59.982,210.2,59.982z"/>
	</g>
</g>
<g>
	<g>
		<path d="M343.821,32.249h-42.02c-5.223,0-9.454,4.233-9.454,9.454c0,5.221,4.232,9.454,9.454,9.454h42.02
			c5.223,0,9.454-4.233,9.454-9.454C353.276,36.482,349.043,32.249,343.821,32.249z"/>
	</g>
</g>
<g>
	<g>
		<path d="M343.821,59.982h-42.02c-5.223,0-9.454,4.233-9.454,9.454c0,5.221,4.232,9.454,9.454,9.454h42.02
			c5.223,0,9.454-4.233,9.454-9.454C353.276,64.215,349.043,59.982,343.821,59.982z"/>
	</g>
</g>
</svg>